<svg height="512" viewBox="0 0 38 58" width="512" xmlns="http://www.w3.org/2000/svg"><g id="038---Guillotine" fill="none"><path id="Shape" d="m33 2v10l-28 3v-13z" fill="#95a5a5"/><path id="Shape" d="m33 8v4l-28 3v-4z" fill="#bdc3c7"/><path id="Shape" d="m8 2v8.68l-3 .32v-9z" fill="#7f8c8d"/><path id="Shape" d="m8 10.68v4l-3 .32v-4z" fill="#95a5a5"/><path id="Shape" d="m33 2v6l-3 .32v-6.32z" fill="#7f8c8d"/><path id="Shape" d="m33 8v4l-3 .32v-4z" fill="#95a5a5"/><path id="Shape" d="m6 1v39h-4v-39c0-.55228475.44771525-1 1-1h2c.55228475 0 1 .44771525 1 1z" fill="#a56a43"/><path id="Shape" d="m36 1v39h-4v-39c0-.55228475.4477153-1 1-1h2c.5522847 0 1 .44771525 1 1z" fill="#a56a43"/><g fill="#805333"><path id="Rectangle-path" d="m2 36h4v4h-4z"/><path id="Rectangle-path" d="m32 36h4v4h-4z"/><path id="Shape" d="m6 53h6v4c0 .5522847-.4477153 1-1 1h-4c-.55228475 0-1-.4477153-1-1z"/><path id="Shape" d="m26 53h6v4c0 .5522847-.4477153 1-1 1h-4c-.5522847 0-1-.4477153-1-1z"/></g><path id="Shape" d="m3 49h32v3c0 1.1045695-.8954305 2-2 2h-28c-1.1045695 0-2-.8954305-2-2z" fill="#a56a43"/><path id="Shape" d="m38 40v8c-.0032948 1.1032019-.8967981 1.9967052-2 2h-34c-1.10320187-.0032948-1.9967052-.8967981-2-2v-8c.0032948-1.1032019.89679813-1.9967052 2-2h10c0 3.8659932 3.1340068 7 7 7s7-3.1340068 7-7h10c1.1032019.0032948 1.9967052.8967981 2 2z" fill="#cb8252"/></g></svg>