<svg viewBox="0 0 511.99965 511" xmlns="http://www.w3.org/2000/svg"><path d="m507.808594 16.957031c-1.046875-6.335937-6.015625-11.304687-12.355469-12.351562-1.015625-.167969-25.253906-4.105469-59.632813-4.105469-43.621093 0-106.101562 6.492188-156.03125 37.429688-3.894531 2.410156-6.472656 6.472656-7 11.019531-.527343 4.550781 1.054688 9.09375 4.292969 12.332031l76.421875 76.421875-24.863281 24.863281-76.421875-76.421875c-5.855469-5.855469-15.351562-5.855469-21.210938 0-5.855468 5.859375-5.855468 15.355469 0 21.210938l76.421876 76.421875-24.863282 24.863281-52.761718-52.761719c-5.859376-5.855468-15.351563-5.855468-21.210938 0-5.855469 5.859375-5.855469 15.351563 0 21.210938l52.761719 52.761718-24.863281 24.863282-29.371094-29.371094c-5.855469-5.855469-15.351563-5.855469-21.210938 0-5.855468 5.855469-5.855468 15.351562 0 21.210938l29.371094 29.371093-25.433594 25.433594c-24.621094-19.882813-55.050781-30.6875-87.140625-30.6875-37.140625 0-72.054687 14.460937-98.316406 40.722656-3.671875 3.675781-5.183594 8.992188-3.988281 14.050781 1.195312 5.058594 4.921875 9.140626 9.855468 10.78125l124.449219 41.484376 41.480469 124.449218c1.644531 4.929688 5.726562 8.65625 10.785156 9.851563 1.140625.269531 2.296875.402343 3.445313.402343 3.929687 0 7.757812-1.550781 10.601562-4.394531 26.261719-26.257812 40.722657-61.171875 40.722657-98.3125 0-32.09375-10.804688-62.519531-30.683594-87.140625l25.433594-25.433594 29.367187 29.371094c2.929687 2.929688 6.769531 4.394532 10.605469 4.394532 3.839844 0 7.679687-1.464844 10.605468-4.394532 5.855469-5.855468 5.855469-15.351562 0-21.207031l-29.371093-29.371094 24.863281-24.867187 52.761719 52.761718c2.929687 2.929688 6.765625 4.394532 10.605469 4.394532 3.835937 0 7.675781-1.464844 10.605468-4.394532 5.855469-5.855468 5.855469-15.351562 0-21.210937l-52.761718-52.757813 24.863281-24.867187 76.421875 76.417969c2.925781 2.929687 6.765625 4.394531 10.601562 4.394531 3.839844 0 7.679688-1.464844 10.605469-4.394531 5.855469-5.855469 5.855469-15.351563 0-21.207032l-76.417969-76.421874 24.863282-24.863282 76.417968 76.421875c2.828125 2.828125 6.648438 4.394531 10.605469 4.394531.570313 0 1.148437-.035156 1.726563-.101562 4.550781-.527344 8.609374-3.105469 11.019531-7 53.824219-86.871094 34.1875-210.449219 33.328125-215.667969zm0 0" fill="#d7e9fd"/><path d="m503.613281 8.796875-368.910156 368.910156h.003906l41.480469 124.449219c1.644531 4.933594 5.722656 8.660156 10.78125 9.855469 1.144531.269531 2.300781.398437 3.445312.398437 3.933594 0 7.761719-1.546875 10.605469-4.390625 26.261719-26.261719 40.722657-61.175781 40.722657-98.3125 0-32.09375-10.808594-62.519531-30.6875-87.140625l25.433593-25.433594 29.371094 29.371094c2.929687 2.929688 6.765625 4.394532 10.605469 4.394532s7.675781-1.464844 10.605468-4.394532c5.855469-5.855468 5.855469-15.351562 0-21.207031l-29.371093-29.375 24.863281-24.863281 52.761719 52.761718c2.929687 2.929688 6.765625 4.390626 10.601562 4.390626 3.839844 0 7.679688-1.464844 10.605469-4.390626 5.855469-5.855468 5.855469-15.351562 0-21.210937l-52.761719-52.761719 24.867188-24.863281 76.421875 76.417969c2.925781 2.929687 6.765625 4.394531 10.601562 4.394531 3.839844 0 7.675782-1.464844 10.605469-4.394531 5.855469-5.855469 5.855469-15.351563 0-21.210938l-76.421875-76.417968 24.867188-24.863282 76.417968 76.421875c2.828125 2.828125 6.648438 4.390625 10.601563 4.390625.574219 0 1.152343-.03125 1.726562-.097656 4.550781-.527344 8.613281-3.105469 11.023438-7 53.820312-86.871094 34.183593-210.449219 33.324219-215.667969-.523438-3.167969-2.023438-5.992187-4.191407-8.160156zm0 0" fill="#b4dafe"/><path d="m402.878906 86.226562c-3.949218 0-7.816406-1.601562-10.609375-4.390624-2.789062-2.796876-4.386719-6.65625-4.386719-10.605469s1.597657-7.820313 4.386719-10.609375c2.792969-2.789063 6.660157-4.390625 10.609375-4.390625 3.949219 0 7.808594 1.601562 10.597656 4.390625 2.789063 2.789062 4.398438 6.660156 4.398438 10.609375s-1.609375 7.808593-4.398438 10.605469c-2.789062 2.789062-6.648437 4.390624-10.597656 4.390624zm0 0" fill="#00abde"/></svg>